<svg xmlns="http://www.w3.org/2000/svg" xmlns:xlink="http://www.w3.org/1999/xlink" version="1.1" id="Layer_1" x="0px" y="0px" width="100px" height="100px" viewBox="0 0 100 100" enable-background="new 0 0 100 100" xml:space="preserve">
<g>
	<g>
		<path d="M66.503,47.472c3.642-1.855,5.922-5.119,5.389-10.559c-0.716-7.433-7.141-9.926-15.252-10.637l-0.001-10.31h-6.282    l-0.001,10.04c-1.653,0-3.339,0.032-5.017,0.066l-0.002-10.105h-6.278l-0.002,10.307c-1.36,0.028-2.696,0.056-4.001,0.056v-0.032    l-8.666-0.003l0.001,6.703c0,0,4.639-0.088,4.563-0.003c2.545,0.002,3.376,1.478,3.613,2.751l0.003,11.748    c0.175,0,0.403,0.006,0.665,0.042c-0.212,0-0.436,0-0.665,0v16.457c-0.11,0.8-0.583,2.078-2.362,2.08c0.081,0.07-4.57,0-4.57,0    l-1.247,7.494h8.175c1.524,0.002,3.021,0.026,4.487,0.037l0.006,10.43l6.277,0.001l-0.002-10.32    c1.726,0.037,3.394,0.052,5.021,0.05l-0.001,10.271l6.281-0.001l0.003-10.41c10.564-0.606,17.956-3.265,18.877-13.175    C76.257,52.47,72.5,48.909,66.503,47.472z M45.487,33.45c3.547,0,14.691-1.128,14.692,6.268    c-0.001,7.091-11.143,6.262-14.692,6.262V33.45z M45.485,66.124l0.002-13.817c4.26,0,17.613-1.224,17.614,6.906    C63.103,67.008,49.747,66.12,45.485,66.124z"/>
	</g>
</g>
<path d="M50,8C73.159,8,92,26.841,92,50c0,23.159-18.841,42-42,42C26.841,92,8,73.158,8,50C8,26.841,26.841,8,50,8 M50,0  C22.386,0,0,22.385,0,50s22.386,50,50,50c27.615,0,50-22.386,50-50S77.615,0,50,0L50,0z"/>
</svg>