<svg xmlns="http://www.w3.org/2000/svg" xmlns:xlink="http://www.w3.org/1999/xlink" xml:space="preserve" width="100px" height="100px" version="1.1" style="shape-rendering:geometricPrecision; text-rendering:geometricPrecision; image-rendering:optimizeQuality; fill-rule:evenodd; clip-rule:evenodd" viewBox="0 0 100 100" enable-background="new 0 0 273.6 360">
 <defs>
  <style type="text/css">
   
    .fil0 {fill:black}
   
  </style>
 </defs>
 <g id="Layer_x0020_1">
  <metadata id="CorelCorpID_0Corel-Layer"/>
  <path class="fil0" d="M50 5c25,0 45,20 45,45 0,25 -20,45 -45,45 -25,0 -45,-20 -45,-45 0,-25 20,-45 45,-45zm14 43c3,-2 5,-5 5,-9 -1,-7 -6,-9 -13,-9l0 -9 -6 0 0 9c-1,0 -3,0 -4,0l0 -9 -6 0 0 9c-1,0 -2,0 -4,0l0 0 -8 0 0 6c0,0 4,0 4,0 2,0 3,1 3,2l0 10 0 15c0,1 -1,2 -2,2 0,0 -4,0 -4,0l-1 7 7 0c1,0 3,0 4,0l0 9 6 0 0 -9c2,0 3,0 4,0l0 9 6 0 0 -9c9,-1 16,-3 17,-12 1,-7 -3,-10 -8,-11l0 0zm-19 -12c3,0 13,-1 13,6 0,6 -10,6 -13,6l0 -11 0 0zm0 29l0 -12c4,0 16,-1 16,6 0,7 -12,6 -16,6l0 0z"/>
 </g>
</svg>