<svg xmlns="http://www.w3.org/2000/svg" xmlns:xlink="http://www.w3.org/1999/xlink" version="1.1" id="Layer_1" x="0px" y="0px" width="100px" height="100px" viewBox="0 0 100 100" enable-background="new 0 0 100 100" xml:space="preserve">
<circle stroke="#000000" stroke-miterlimit="10" cx="50.204" cy="10.613" r="7.613"/>
<path stroke="#FFFFFF" stroke-miterlimit="10" d="M50.204,19.769c-21.554,0-16.365,32.377-16.365,32.377h5.272  c-0.261-1.856-2.739-20.773,3.962-24.559c0,0-0.781,22.21-0.067,24.559h13.938c0.679-2.339-0.064-24.382-0.064-24.382  c6.375,3.757,4.019,22.532,3.77,24.382h5.18C65.829,52.146,71.758,19.769,50.204,19.769z" fill="#000000"/>
<path stroke="#000000" stroke-miterlimit="10" d="M49.723,63.324c1.882-4.713,3.233,28.195,3.387,32.133  c2.757-0.058,4.936-0.125,4.936-0.125S57.538,54.975,56.88,53.24H43.074c0,0-1.916,41.619-1.154,42.092  c0.275,0.171,2.452,0.218,5.119,0.209C47.135,92.089,47.866,67.975,49.723,63.324z"/>
</svg>